# xmcd CD database file
#
# Track frame offsets:
#	150
#	47880
#	97501
#	143860
#	179952
#	217660
#	255038
#
# Disc length: 3818 seconds
#
# Revision: 0
# Processed by: cddbd v1.5.2PL0 Copyright (c) Steve Scherf et al.
# Submitted via: CDex 1.51
#
DISCID=550ee807
DTITLE=Andersson Bengt - BAQ in Stockholm
DYEAR=2002
DGENRE=Jazz
TTITLE0=BYE BYE BLACKBIRD
TTITLE1=BODY AND SOUL
TTITLE2=THE DAYS OF WINE AND ROSES
TTITLE3=I FALL IN LOVE TO EASILY
TTITLE4=SOME DAY MY PRINCE WILL COME
TTITLE5=WHEN I FALL IN LOVE
TTITLE6=AUTUMN LEAVES
EXTD=YEAR: 2002
EXTT0=
EXTT1=
EXTT2=
EXTT3=
EXTT4=
EXTT5=
EXTT6=
PLAYORDER=
